<svg width="178" height="40" viewBox="0 0 178 40" fill="none" xmlns="http://www.w3.org/2000/svg">
<g clip-path="url(#clip0_6304_4691)">
<mask id="mask0_6304_4691" style="mask-type:luminance" maskUnits="userSpaceOnUse" x="0" y="0" width="78" height="40">
<path d="M77.2491 0H0V39.4121H77.2491V0Z" fill="white"/>
</mask>
<g mask="url(#mask0_6304_4691)">
<path d="M8.29541 9.62793C8.34608 10.311 8.4665 10.987 8.6548 11.6455C9.61093 12.122 10.4252 12.841 11.0164 13.7308C11.6077 14.6205 11.955 15.6498 12.0239 16.7158C12.5658 17.1529 13.1516 17.5327 13.7718 17.8491V17.0837C13.7716 15.4198 13.2404 13.7994 12.2553 12.4584C11.2704 11.1174 9.88305 10.1258 8.29541 9.62793Z" fill="white"/>
<path d="M8.69025 5.97388C8.52303 6.53204 8.40479 7.10368 8.33691 7.68234C10.4296 8.21022 12.2861 9.42186 13.6118 11.125C14.9375 12.8282 15.6564 14.9253 15.6545 17.0836V18.5805C16.2255 18.7381 16.8095 18.8448 17.3993 18.8993V17.0811C17.3984 14.5226 16.5399 12.0382 14.9613 10.0248C13.3825 8.01144 11.1747 6.58513 8.69025 5.97388Z" fill="white"/>
<path d="M19.8397 11.2187C18.9827 9.19249 17.6928 7.37819 16.0605 5.90315C14.4282 4.4281 12.493 3.32798 10.3906 2.67993C10.0162 3.15999 9.68624 3.673 9.40454 4.21266C12.2375 4.97251 14.7407 6.6457 16.5261 8.97279C18.3115 11.2999 19.2794 14.151 19.2797 17.0842V18.9024C19.8696 18.8478 20.4535 18.7411 21.0245 18.5836V17.0866C21.0285 15.0709 20.6255 13.075 19.8397 11.2187Z" fill="white"/>
<path d="M19.1796 3.86485C17.5608 2.24187 15.6564 0.931636 13.562 0C12.9469 0.33217 12.3681 0.72743 11.8347 1.17939C15.0848 2.38111 17.8886 4.54968 19.8688 7.39315C21.849 10.2367 22.9105 13.6185 22.9105 17.0836V17.8491C23.5282 17.534 24.1116 17.1561 24.6517 16.7212C24.5643 11.8881 22.6024 7.27812 19.1802 3.86425L19.1796 3.86485Z" fill="white"/>
<path d="M26.4333 12.7938C26.899 12.3259 27.4377 11.9369 28.0285 11.6423C28.2167 10.9838 28.3371 10.3077 28.3879 9.62476C26.8005 10.1226 25.4135 11.1141 24.4286 12.4549C23.4437 13.7956 22.9125 15.4157 22.9121 17.0793V17.8472C23.5359 17.5289 24.125 17.1467 24.6697 16.7066C24.757 15.23 25.3848 13.8372 26.4333 12.7938Z" fill="white"/>
<path d="M21.0276 17.0841C21.0267 14.9261 21.746 12.8295 23.0715 11.1265C24.397 9.42357 26.2529 8.21163 28.3451 7.68284C28.2773 7.10418 28.159 6.53248 27.9918 5.97437C25.5069 6.58575 23.2986 8.01248 21.7199 10.0265C20.1411 12.0405 19.283 14.5256 19.2827 17.0847V18.9028C19.8726 18.8482 20.4565 18.7416 21.0276 18.5841V17.0841Z" fill="white"/>
<path d="M17.3994 17.0842C17.3997 14.151 18.3677 11.2998 20.1532 8.97267C21.9387 6.64552 24.4421 4.9724 27.2752 4.21266C26.9933 3.67299 26.663 3.15998 26.2885 2.67993C23.2079 3.62683 20.5124 5.53713 18.5982 8.12994C16.6841 10.7228 15.6522 13.8613 15.6545 17.0842V18.5812C16.2256 18.7387 16.8095 18.8453 17.3994 18.8999V17.0842Z" fill="white"/>
<path d="M13.7718 17.0836C13.7718 13.6185 14.8333 10.2367 16.8135 7.39315C18.7937 4.54968 21.5975 2.38111 24.8475 1.17939C24.3142 0.727473 23.7353 0.332215 23.1202 0C19.8744 1.445 17.1072 3.78459 15.1425 6.74497C13.1778 9.70533 12.0969 13.1641 12.0264 16.7164C12.5681 17.1532 13.1537 17.5328 13.7736 17.8491L13.7718 17.0836Z" fill="white"/>
<path d="M66.9206 10.015C67.3358 9.7751 67.6818 9.43171 67.9255 9.01819C68.1685 8.60474 68.3006 8.13522 68.3085 7.65559C68.3085 6.26165 67.2176 5.3186 65.7134 5.3186H62.3831V13.5865C62.9588 13.6232 63.5364 13.6232 64.1128 13.5865V11.0883C64.5449 10.9981 64.9709 10.8826 65.3897 10.7423C65.9449 11.6582 66.4425 12.6081 66.8788 13.5865C67.5285 13.6232 68.1806 13.6232 68.8309 13.5865C68.2691 12.3572 67.6309 11.1644 66.9206 10.015ZM64.1128 7.05195H65.4182C66.2473 7.05195 66.5952 7.28892 66.5321 7.88043C66.4431 8.71316 65.1073 9.19074 64.1152 9.42346L64.1128 7.05195Z" fill="white"/>
<path d="M58.6585 5.28459C58.0555 5.23723 57.4497 5.23885 56.847 5.28944L53.7476 13.584C54.3701 13.6266 54.995 13.6249 55.6173 13.5791L56.0833 12.3064C57.1945 12.0201 58.36 12.0201 59.4712 12.3064L59.9463 13.5907C60.5656 13.6245 61.186 13.6223 61.8054 13.584L58.6585 5.28459ZM56.7257 10.5495L57.7688 7.69795L58.8227 10.5464C58.1262 10.4627 57.4221 10.4635 56.7257 10.5488V10.5495Z" fill="white"/>
<path d="M53.2339 13.5865L53.2103 5.30103C52.6263 5.26399 52.0407 5.26561 51.457 5.30588L51.4697 9.86288C50.4724 8.19476 49.245 6.67554 47.8236 5.35012V5.31739C47.2444 5.27953 46.6632 5.28115 46.0842 5.32224L46.1079 13.6077C46.6865 13.6611 47.2689 13.6595 47.8473 13.6029L47.8309 7.81863C49.397 9.49791 50.6343 11.456 51.4788 13.5913C52.0634 13.6241 52.6494 13.6225 53.2339 13.5865Z" fill="white"/>
<path d="M39.3442 13.5825V5.31763H44.8467C44.9055 5.89451 44.9055 6.47591 44.8467 7.05276H41.0776V8.42488H44.263C44.3071 8.96276 44.3071 9.50337 44.263 10.0412H41.0776V11.8473H45.0988C45.1577 12.4242 45.1577 13.0056 45.0988 13.5825H39.3442Z" fill="white"/>
<path d="M35.5553 13.6944C37.0468 13.6944 38.4402 12.9592 38.4402 11.3028C38.4402 9.72344 37.3874 9.28465 36.2244 8.70344C35.6541 8.41799 34.0426 7.81496 34.0426 7.32162C34.0426 6.91556 34.5141 6.81738 35.1068 6.81738C35.8266 6.82471 36.5394 6.95847 37.2129 7.21253C37.5053 6.78253 37.7173 6.30308 37.8384 5.79737C36.8583 5.37893 35.7994 5.17695 34.7341 5.20525C33.2535 5.20525 32.222 5.92948 32.222 7.38708C32.222 8.9992 34.1414 9.65738 34.9644 10.0307C35.8971 10.4586 36.6535 10.6974 36.6535 11.3907C36.6535 11.9828 35.7977 11.9719 35.3923 11.9719C34.3687 11.9505 33.3594 11.7268 32.4226 11.3137C32.1316 11.7688 31.8994 12.259 31.7317 12.7725C32.9014 13.4147 34.2214 13.7329 35.5553 13.6944Z" fill="white"/>
<path d="M77.2491 24.8936H0V25.3445H77.2491V24.8936Z" fill="white"/>
<path d="M0.189453 37.452V31.3059H4.33794V32.4677H1.57188V33.6738H4.02643V34.8089H1.57188V36.2901H4.54157V37.452H0.189453Z" fill="white"/>
<path d="M8.97402 37.3012C8.85602 37.3367 8.72008 37.3707 8.56614 37.403C8.4122 37.4353 8.25057 37.4634 8.08129 37.4873C7.91281 37.5107 7.74148 37.5309 7.56735 37.5479C7.39317 37.5649 7.22632 37.5723 7.06669 37.5703C6.71596 37.5761 6.36705 37.5191 6.03642 37.4018C5.74963 37.2984 5.48928 37.1328 5.274 36.917C5.06258 36.6999 4.90069 36.4395 4.79945 36.154C4.68615 35.8306 4.63076 35.4898 4.63582 35.1473C4.63134 34.8007 4.67914 34.4553 4.77763 34.123C4.86081 33.8398 4.99946 33.5758 5.18551 33.3467C5.36152 33.136 5.58474 32.97 5.83703 32.8618C6.11608 32.7451 6.41639 32.6878 6.71887 32.6933C6.88445 32.6914 7.04966 32.7093 7.21099 32.7467C7.36135 32.7841 7.50814 32.8346 7.64978 32.8976V30.7843L8.97039 30.5715L8.97402 37.3012ZM5.98672 35.0836C5.96961 35.4327 6.0659 35.778 6.26129 36.0679C6.35596 36.1925 6.47996 36.2917 6.62232 36.3567C6.76463 36.4218 6.92087 36.4506 7.07705 36.4406C7.19499 36.4406 7.30432 36.4361 7.40493 36.4273C7.50554 36.4182 7.58675 36.4085 7.65342 36.3964V33.9927C7.55293 33.9321 7.44378 33.8874 7.32978 33.86C7.19832 33.8246 7.06281 33.8066 6.92675 33.8067C6.30008 33.807 5.98672 34.2329 5.98672 35.0843V35.0836Z" fill="white"/>
<path d="M13.6882 37.2921C13.4026 37.37 13.1126 37.4307 12.8197 37.4739C12.4502 37.5311 12.0767 37.5593 11.7028 37.5582C11.3661 37.5682 11.0306 37.5141 10.7143 37.3988C10.4706 37.3063 10.2552 37.1519 10.0894 36.9509C9.93082 36.7487 9.81888 36.514 9.76155 36.2636C9.69404 35.9758 9.66125 35.681 9.66398 35.3854V32.7891H10.9846V35.2278C10.9623 35.5446 11.0203 35.8619 11.1531 36.1503C11.2221 36.2505 11.3173 36.33 11.4283 36.38C11.5393 36.43 11.6619 36.4486 11.7828 36.4339C11.8769 36.4339 11.9779 36.4294 12.0858 36.4206C12.1937 36.4117 12.2882 36.4014 12.3694 36.3897V32.7891H13.69L13.6882 37.2921Z" fill="white"/>
<path d="M14.2024 35.1201C14.2004 34.7951 14.2559 34.4723 14.3666 34.1668C14.4696 33.8756 14.6318 33.6091 14.8432 33.3839C15.0546 33.1588 15.3104 32.98 15.5944 32.8589C15.9139 32.724 16.2581 32.6575 16.6047 32.6637C16.8339 32.6619 17.0627 32.6843 17.2872 32.7304C17.4938 32.7749 17.6956 32.8388 17.8902 32.9213L17.615 33.9771C17.4818 33.928 17.3456 33.8875 17.2072 33.8558C17.0444 33.8186 16.8778 33.8008 16.7108 33.8025C16.5469 33.7903 16.3824 33.8168 16.2307 33.88C16.079 33.9432 15.9443 34.0412 15.8375 34.1661C15.6346 34.4431 15.5329 34.7814 15.5496 35.1243C15.528 35.4706 15.6232 35.8142 15.8199 36.1001C15.9399 36.2266 16.0877 36.3237 16.2515 36.3838C16.4153 36.4438 16.5907 36.4651 16.7641 36.4462C16.9364 36.4452 17.1082 36.4304 17.2781 36.4019C17.4516 36.3751 17.6214 36.3275 17.7835 36.2601L17.9696 37.3419C17.7834 37.4166 17.5904 37.473 17.3932 37.5104C17.1421 37.5596 16.8867 37.5834 16.6308 37.5813C16.2554 37.5904 15.8819 37.5258 15.5314 37.391C15.243 37.2769 14.9839 37.0997 14.7732 36.8722C14.5726 36.6488 14.4242 36.3837 14.3387 36.0958C14.2445 35.7792 14.1986 35.4503 14.2024 35.1201Z" fill="white"/>
<path d="M19.8052 32.6629C20.1353 32.6543 20.4647 32.6994 20.7803 32.7962C21.0167 32.8703 21.2312 33.0012 21.4052 33.1774C21.5647 33.3486 21.6788 33.557 21.7373 33.7835C21.8049 34.0406 21.8377 34.3056 21.8349 34.5714V37.3211C21.6458 37.3614 21.3832 37.4103 21.047 37.4677C20.6423 37.5288 20.2333 37.5569 19.824 37.552C19.5486 37.5545 19.2737 37.5277 19.004 37.472C18.7777 37.4267 18.5623 37.3378 18.37 37.2102C18.1943 37.091 18.0536 36.9272 17.9622 36.7356C17.8613 36.51 17.8128 36.2645 17.8203 36.0174C17.8128 35.7762 17.8694 35.5374 17.9846 35.3253C18.0903 35.1399 18.2413 34.9844 18.4234 34.8732C18.6177 34.7569 18.8305 34.675 19.0525 34.6308C19.2944 34.5798 19.541 34.5544 19.7882 34.555C19.9407 34.5542 20.093 34.5616 20.2446 34.5774C20.3539 34.5889 20.4622 34.6091 20.5682 34.638V34.5168C20.5728 34.4176 20.557 34.3185 20.522 34.2256C20.487 34.1326 20.4334 34.0477 20.3646 33.9762C20.1636 33.8188 19.9094 33.7456 19.6555 33.772C19.4324 33.7717 19.2096 33.7879 18.9888 33.8205C18.7956 33.8468 18.6055 33.8929 18.4216 33.958L18.2531 32.8938C18.33 32.8702 18.4258 32.8447 18.541 32.8186C18.6561 32.7926 18.7834 32.7683 18.9179 32.7477C19.0525 32.7271 19.1973 32.709 19.3476 32.6944C19.4979 32.6799 19.6513 32.6629 19.8052 32.6629ZM19.9113 36.5302C20.0414 36.5302 20.1654 36.5271 20.2834 36.5211C20.3783 36.5175 20.473 36.5086 20.567 36.4944V35.492C20.5137 35.4805 20.4343 35.4683 20.3276 35.4562C20.2304 35.4451 20.1327 35.4392 20.0349 35.4386C19.9177 35.438 19.8007 35.4454 19.6846 35.4605C19.5847 35.4724 19.4873 35.5009 19.3967 35.5447C19.3179 35.5825 19.2505 35.6407 19.2016 35.7132C19.1519 35.7928 19.1271 35.8854 19.1307 35.9792C19.1218 36.0633 19.1366 36.1481 19.1734 36.2242C19.2103 36.3002 19.2677 36.3644 19.3391 36.4096C19.5166 36.4986 19.7142 36.5402 19.9125 36.5302H19.9113Z" fill="white"/>
<path d="M24.8128 37.8072C24.9743 37.877 25.1105 37.9946 25.2031 38.1441C25.2718 38.2661 25.3083 38.4035 25.3091 38.5435C25.3151 38.6717 25.2871 38.799 25.2279 38.9128C25.1687 39.0266 25.0805 39.1227 24.9722 39.1914C24.7049 39.3504 24.3968 39.4275 24.0861 39.4132C23.9556 39.4132 23.8253 39.4029 23.6964 39.3823C23.5649 39.3612 23.4347 39.3331 23.3061 39.2981L23.4655 38.5266C23.5059 38.5387 23.5813 38.5589 23.6916 38.5872C23.7975 38.6133 23.9061 38.6267 24.0152 38.6272C24.0904 38.6289 24.1649 38.6123 24.2322 38.5787C24.2632 38.5618 24.2891 38.5368 24.307 38.5064C24.3249 38.476 24.3342 38.4413 24.334 38.406C24.3362 38.3691 24.3297 38.3323 24.3151 38.2984C24.3004 38.2645 24.2781 38.2345 24.2498 38.2108C24.1645 38.1406 24.0619 38.0945 23.9528 38.0775L23.8461 38.0508C23.8741 37.9619 23.9067 37.8745 23.9437 37.789C23.9841 37.6916 24.0245 37.6015 24.0649 37.5187C23.7833 37.4704 23.5137 37.3675 23.2716 37.2157C23.0553 37.076 22.8685 36.8952 22.7219 36.6835C22.5739 36.4665 22.4659 36.2247 22.4031 35.9696C22.334 35.6941 22.2998 35.4111 22.3013 35.1272C22.2993 34.8022 22.3549 34.4794 22.4656 34.1738C22.5685 33.8827 22.7308 33.6161 22.9421 33.391C23.1535 33.1658 23.4093 32.987 23.6934 32.866C24.0129 32.7311 24.357 32.6646 24.7037 32.6708C24.9329 32.669 25.1616 32.6914 25.3862 32.7375C25.5927 32.782 25.7947 32.8458 25.9892 32.9284L25.714 33.9841C25.5808 33.9351 25.4445 33.8946 25.3061 33.8629C25.1433 33.8258 24.9767 33.8078 24.8097 33.8096C24.6459 33.7974 24.4814 33.824 24.3297 33.8871C24.1779 33.9503 24.0433 34.0483 23.9365 34.1732C23.7335 34.4502 23.6319 34.7884 23.6486 35.1314C23.6269 35.4778 23.722 35.8214 23.9188 36.1072C24.0388 36.2337 24.1865 36.3307 24.3502 36.3907C24.5139 36.4507 24.6892 36.4721 24.8625 36.4532C25.0347 36.4523 25.2066 36.4375 25.3764 36.409C25.55 36.3822 25.7197 36.3346 25.8819 36.2672L26.068 37.349C25.9066 37.416 25.7388 37.4665 25.5673 37.4999C25.3525 37.5434 25.1348 37.5701 24.9159 37.5799C24.8922 37.6272 24.8716 37.6714 24.8552 37.7132C24.8388 37.755 24.8243 37.7775 24.8128 37.8072Z" fill="white"/>
<path d="M27.9065 32.6633C28.2366 32.6547 28.566 32.6998 28.8817 32.7966C29.118 32.8707 29.3325 33.0016 29.5065 33.1778C29.666 33.349 29.7801 33.5573 29.8386 33.7839C29.9062 34.0409 29.9391 34.3059 29.9362 34.5718V37.3214C29.7471 37.3618 29.4845 37.4107 29.1483 37.4681C28.7436 37.5291 28.3346 37.5573 27.9253 37.5524C27.6499 37.5549 27.375 37.5281 27.1053 37.4724C26.8791 37.4273 26.6637 37.3385 26.4714 37.2111C26.2957 37.0919 26.1549 36.9282 26.0635 36.7366C25.9626 36.511 25.9141 36.2654 25.9217 36.0184C25.9142 35.7774 25.9709 35.5388 26.0859 35.3269C26.1916 35.1416 26.3426 34.986 26.5247 34.8748C26.719 34.7585 26.9317 34.6765 27.1538 34.6324C27.3957 34.5814 27.6423 34.556 27.8895 34.5566C28.042 34.5558 28.1943 34.5632 28.3459 34.579C28.4552 34.5905 28.5635 34.6107 28.6695 34.6396V34.5184C28.6741 34.4192 28.6583 34.3201 28.6234 34.2271C28.5883 34.1342 28.5348 34.0494 28.4659 33.9778C28.2649 33.8205 28.0107 33.7473 27.7568 33.7736C27.5337 33.7733 27.3109 33.7895 27.0902 33.8221C26.8969 33.8485 26.7068 33.8946 26.5229 33.9596L26.3544 32.8954C26.4312 32.8716 26.5271 32.8465 26.6423 32.8202C26.7574 32.7939 26.8831 32.7703 27.0192 32.7493C27.155 32.7287 27.2982 32.7109 27.4489 32.696C27.5997 32.681 27.7522 32.6701 27.9065 32.6633ZM29.635 31.1645C29.5935 31.2654 29.5447 31.3633 29.4889 31.4572C29.4259 31.5649 29.3499 31.6647 29.2629 31.7542C29.1746 31.8453 29.0723 31.9216 28.9598 31.9802C28.8449 32.0398 28.7171 32.0702 28.5877 32.0687C28.4866 32.0696 28.3862 32.053 28.2908 32.0196C28.1991 31.9873 28.1089 31.9518 28.0205 31.913C27.932 31.8742 27.8433 31.8386 27.7544 31.8063C27.6665 31.7741 27.5735 31.7577 27.4798 31.7578C27.4258 31.756 27.3719 31.7653 27.3215 31.7851C27.2712 31.8049 27.2255 31.8348 27.1871 31.873C27.11 31.9501 27.0471 32.0402 27.0011 32.139L26.3538 31.7148C26.3952 31.6138 26.4441 31.5159 26.4998 31.4221C26.563 31.3144 26.6389 31.2147 26.7259 31.1251C26.8142 31.034 26.9165 30.9577 27.0289 30.899C27.1438 30.8394 27.2716 30.809 27.4011 30.8105C27.5021 30.8098 27.6026 30.8264 27.698 30.8596C27.7897 30.8924 27.8798 30.9279 27.9683 30.9663C28.0568 31.0047 28.1438 31.0402 28.2295 31.073C28.3189 31.1061 28.4136 31.1225 28.5089 31.1214C28.563 31.1231 28.6168 31.1139 28.6672 31.0941C28.7175 31.0742 28.7632 31.0444 28.8017 31.0063C28.8786 30.929 28.9415 30.839 28.9877 30.7402L29.635 31.1645ZM28.0126 36.5305C28.1426 36.5305 28.2667 36.5275 28.3847 36.5214C28.4797 36.5179 28.5743 36.509 28.6683 36.4948V35.4924C28.615 35.4806 28.5352 35.4687 28.4289 35.4566C28.3317 35.4454 28.234 35.4395 28.1362 35.439C28.0191 35.4385 27.902 35.4458 27.7859 35.4608C27.686 35.4729 27.5887 35.5013 27.498 35.5451C27.4192 35.583 27.3518 35.6411 27.3029 35.7136C27.2532 35.7931 27.2285 35.8858 27.232 35.9796C27.2231 36.0636 27.2379 36.1485 27.2748 36.2245C27.3116 36.3006 27.369 36.3648 27.4405 36.4099C27.6176 36.4986 27.8147 36.5405 28.0126 36.5305Z" fill="white"/>
<path d="M34.9893 35.1107C34.9933 35.4529 34.9393 35.7933 34.8299 36.1175C34.7323 36.407 34.5752 36.6729 34.3687 36.8981C34.1664 37.1147 33.9201 37.2857 33.6462 37.3993C33.3465 37.521 33.0254 37.5812 32.702 37.5762C32.3816 37.5806 32.0635 37.5204 31.7668 37.3993C31.493 37.2857 31.2467 37.1148 31.0444 36.8981C30.8372 36.6719 30.6774 36.4064 30.5747 36.1175C30.4592 35.7946 30.4021 35.4537 30.4062 35.1107C30.4019 34.7689 30.4604 34.4291 30.579 34.1084C30.6851 33.8216 30.8479 33.5592 31.0577 33.3368C31.2633 33.1228 31.5109 32.9536 31.785 32.8398C32.0758 32.7195 32.3879 32.6591 32.7026 32.6623C33.0203 32.6586 33.3354 32.719 33.6293 32.8398C33.9022 32.9531 34.1484 33.1224 34.3517 33.3368C34.5586 33.5598 34.7184 33.8222 34.8214 34.1084C34.9368 34.4298 34.9937 34.7693 34.9893 35.1107ZM33.642 35.1107C33.661 34.7727 33.5765 34.437 33.3996 34.1483C33.3233 34.0353 33.2192 33.9437 33.0974 33.8824C32.9756 33.8211 32.8401 33.792 32.7038 33.798C32.567 33.7923 32.431 33.8215 32.3085 33.8828C32.1861 33.944 32.0813 34.0354 32.0038 34.1483C31.8234 34.4357 31.7368 34.772 31.7559 35.1107C31.7383 35.4517 31.8248 35.7898 32.0038 36.0805C32.0797 36.1955 32.1841 36.289 32.3067 36.352C32.4293 36.4149 32.5661 36.4452 32.7038 36.4398C32.841 36.4455 32.9773 36.4154 33.0993 36.3523C33.2213 36.2893 33.3248 36.1956 33.3996 36.0805C33.5751 35.7886 33.6599 35.4509 33.642 35.1107Z" fill="white"/>
<path d="M38.8007 32.6629C39.1308 32.6544 39.4601 32.6994 39.7758 32.7962C40.0121 32.8703 40.2267 33.0012 40.4007 33.1774C40.5601 33.3486 40.6743 33.5569 40.7328 33.7835C40.8003 34.0406 40.8332 34.3055 40.8304 34.5713V37.3211C40.6413 37.3614 40.3787 37.4103 40.0425 37.4677C39.6375 37.5288 39.2284 37.5569 38.8189 37.5519C38.5435 37.5545 38.2686 37.5277 37.9989 37.472C37.7726 37.4267 37.5572 37.3378 37.3649 37.2101C37.1892 37.091 37.0484 36.9272 36.957 36.7356C36.8561 36.51 36.8076 36.2645 36.8152 36.0174C36.8076 35.7762 36.8643 35.5374 36.9795 35.3253C37.0852 35.1399 37.2361 34.9844 37.4183 34.8732C37.6126 34.7569 37.8253 34.675 38.0473 34.6308C38.2893 34.5798 38.5359 34.5544 38.7831 34.555C38.9355 34.5541 39.0879 34.5616 39.2395 34.5774C39.3488 34.5889 39.457 34.6091 39.5631 34.638V34.5168C39.5676 34.4175 39.5518 34.3184 39.5166 34.2255C39.4815 34.1325 39.4278 34.0477 39.3589 33.9761C39.1579 33.8188 38.9037 33.7455 38.6498 33.7719C38.4267 33.7717 38.2038 33.7879 37.9831 33.8205C37.7898 33.8468 37.5998 33.8929 37.4158 33.958L37.2473 32.8938C37.3243 32.8701 37.4201 32.8446 37.5352 32.8186C37.6504 32.7925 37.7776 32.7683 37.9122 32.7477C38.0467 32.7271 38.1916 32.7089 38.3419 32.6944C38.4922 32.6798 38.6467 32.6629 38.8007 32.6629ZM38.9073 36.5301C39.0375 36.5301 39.1615 36.5271 39.2795 36.5211C39.3744 36.5175 39.4691 36.5086 39.5631 36.4943V35.492C39.5098 35.4805 39.4304 35.4683 39.3237 35.4562C39.2266 35.4451 39.1288 35.4392 39.031 35.4386C38.9141 35.4381 38.7972 35.4454 38.6813 35.4605C38.5813 35.4724 38.4841 35.5008 38.3934 35.5447C38.3146 35.5825 38.2472 35.6406 38.1983 35.7131C38.1486 35.7928 38.1239 35.8854 38.1273 35.9792C38.1185 36.0632 38.1333 36.1481 38.1701 36.2241C38.207 36.3002 38.2644 36.3644 38.3358 36.4095C38.5126 36.4983 38.7098 36.5398 38.9073 36.5301Z" fill="white"/>
<path d="M48.6129 34.3745C48.6234 34.851 48.5389 35.3249 48.3644 35.7684C48.211 36.1478 47.9694 36.4852 47.6596 36.7526C47.3341 37.0241 46.9549 37.2236 46.5468 37.3381C46.0684 37.4738 45.5727 37.5395 45.0753 37.5333C44.8273 37.5333 44.5378 37.5229 44.2068 37.5023C43.8792 37.4822 43.5534 37.4393 43.2317 37.3739V31.3854C43.5612 31.3245 43.8942 31.284 44.2287 31.2642C44.5741 31.2435 44.8711 31.2332 45.1196 31.2332C45.6025 31.2279 46.0841 31.2876 46.5511 31.4108C46.9545 31.5166 47.3308 31.7071 47.6547 31.9696C47.9676 32.2317 48.2112 32.5668 48.3638 32.9454C48.5404 33.4006 48.6251 33.8863 48.6129 34.3745ZM44.6129 36.326C44.678 36.332 44.7533 36.3365 44.839 36.3394C44.9247 36.3422 45.0256 36.3436 45.142 36.3436C45.4205 36.3665 45.7008 36.3319 45.9654 36.2419C46.2301 36.1519 46.4733 36.0085 46.6802 35.8205C47.0314 35.4237 47.2114 34.9041 47.1808 34.3751C47.2198 34.1056 47.1948 33.8306 47.1079 33.5726C47.0209 33.3146 46.8743 33.0806 46.6801 32.8897C46.4859 32.6989 46.2494 32.5565 45.9899 32.474C45.7304 32.3916 45.455 32.3714 45.1862 32.4151C45.0917 32.4151 44.9944 32.4165 44.8941 32.4193C44.7993 32.4218 44.7046 32.4291 44.6105 32.4411L44.6129 36.326Z" fill="white"/>
<path d="M50.6154 31.4389C50.6206 31.5457 50.6023 31.6523 50.5617 31.7512C50.521 31.8501 50.4591 31.9388 50.3802 32.0111C50.227 32.1455 50.0301 32.2195 49.8263 32.2195C49.6224 32.2195 49.4256 32.1455 49.2723 32.0111C49.122 31.8586 49.0376 31.6531 49.0376 31.4389C49.0376 31.2248 49.122 31.0192 49.2723 30.8668C49.4257 30.7325 49.6225 30.6584 49.8263 30.6584C50.0301 30.6584 50.2269 30.7325 50.3802 30.8668C50.4591 30.939 50.521 31.0277 50.5617 31.1266C50.6023 31.2255 50.6206 31.3321 50.6154 31.4389ZM50.4941 37.4523H49.1735V32.7856H50.4941V37.4523Z" fill="white"/>
<path d="M52.5662 36.5035C52.7405 36.5142 52.9152 36.49 53.0801 36.4326C53.1303 36.4075 53.1715 36.3678 53.1985 36.3186C53.2253 36.2694 53.2365 36.2132 53.2305 36.1575C53.2257 36.0978 53.2052 36.0405 53.1711 35.9914C53.1369 35.9423 53.0902 35.9032 53.0359 35.8781C52.8462 35.7708 52.6475 35.6803 52.442 35.6078C52.2503 35.5366 52.0624 35.4557 51.8789 35.3653C51.7208 35.2899 51.5758 35.1896 51.4492 35.0684C51.33 34.9517 51.2364 34.8113 51.1747 34.6563C51.1053 34.4722 51.0722 34.2765 51.0771 34.0799C51.0691 33.8808 51.109 33.6826 51.1934 33.5022C51.2777 33.3216 51.4041 33.1639 51.562 33.0423C51.9525 32.7684 52.4239 32.6341 52.9002 32.6611C53.1738 32.6603 53.447 32.6857 53.7159 32.7369C53.927 32.7741 54.1346 32.829 54.3365 32.9011L54.1062 33.9314C53.942 33.8752 53.7749 33.8279 53.6056 33.7896C53.4065 33.7468 53.2032 33.7265 52.9995 33.729C52.5858 33.729 52.3789 33.8443 52.3789 34.075C52.378 34.1236 52.3871 34.1719 52.4056 34.2169C52.4294 34.2661 52.466 34.308 52.5117 34.3381C52.5804 34.3856 52.653 34.4274 52.7286 34.4629C52.8203 34.5078 52.9371 34.5569 53.0789 34.6102C53.3255 34.6986 53.5653 34.8047 53.7965 34.9278C53.9634 35.0151 54.1147 35.1294 54.2444 35.266C54.3504 35.3811 54.4291 35.5186 54.4747 35.6683C54.5217 35.8353 54.5442 36.0083 54.5414 36.1817C54.5525 36.3857 54.5106 36.5891 54.4198 36.7721C54.329 36.9551 54.1924 37.1114 54.0232 37.226C53.5802 37.4872 53.0693 37.6105 52.5559 37.5799C52.0077 37.5925 51.4624 37.496 50.9517 37.2962L51.1735 36.2229C51.3978 36.3116 51.6291 36.3814 51.865 36.4314C52.0955 36.48 52.3306 36.5042 52.5662 36.5035Z" fill="white"/>
<path d="M54.9771 31.6236L56.2978 31.4109V32.7854H57.8844V33.8854H56.2978V35.526C56.2864 35.7573 56.3368 35.9874 56.4438 36.1927C56.5107 36.2833 56.6008 36.3541 56.7045 36.3978C56.8083 36.4416 56.9219 36.4565 57.0335 36.4412C57.1807 36.4407 57.3275 36.4273 57.4723 36.4012C57.6128 36.3772 57.7508 36.3401 57.8844 36.2903L58.0705 37.3206C57.8975 37.3899 57.7196 37.4463 57.5384 37.4891C57.3025 37.5406 57.0615 37.5645 56.8202 37.56C56.5151 37.5695 56.2111 37.5197 55.925 37.4133C55.7045 37.3274 55.5094 37.1871 55.3577 37.0054C55.2108 36.8201 55.1091 36.6031 55.0607 36.3716C55.0022 36.1005 54.9739 35.8239 54.9765 35.5466L54.9771 31.6236Z" fill="white"/>
<path d="M59.9489 32.6624C60.279 32.6536 60.6083 32.6985 60.9241 32.7951C61.1604 32.8692 61.375 33.0001 61.5489 33.1763C61.7083 33.3475 61.8229 33.5558 61.8811 33.7824C61.9489 34.0395 61.9817 34.3045 61.9786 34.5703V37.3199C61.7895 37.3604 61.5271 37.4093 61.1907 37.4666C60.7859 37.5276 60.3766 37.5558 59.9671 37.5509C59.6917 37.5535 59.4168 37.5266 59.1471 37.4709C58.9208 37.4256 58.7055 37.3367 58.5132 37.209C58.3375 37.0899 58.1967 36.9261 58.1052 36.7345C58.0044 36.5089 57.9558 36.2633 57.9634 36.0163C57.9559 35.7753 58.0126 35.5367 58.1277 35.3248C58.2334 35.1395 58.3843 34.9839 58.5664 34.8727C58.7607 34.7566 58.9735 34.6746 59.1956 34.6303C59.4375 34.5793 59.6841 34.5539 59.9313 34.5546C60.0837 34.5536 60.2361 34.5612 60.3877 34.5769C60.4969 34.5873 60.6052 34.6066 60.7114 34.6345V34.5133C60.7156 34.4141 60.7004 34.315 60.6653 34.2221C60.6301 34.1291 60.5766 34.0443 60.5077 33.9727C60.3066 33.8155 60.0525 33.7423 59.7986 33.7685C59.5755 33.7682 59.3527 33.7844 59.132 33.8169C58.9387 33.8433 58.7486 33.8895 58.5646 33.9545L58.3962 32.8903C58.473 32.8669 58.5689 32.8416 58.6841 32.8146C58.7992 32.7875 58.9249 32.7638 59.061 32.7436C59.1968 32.723 59.34 32.7052 59.4908 32.6903C59.6414 32.6753 59.7941 32.666 59.9489 32.6624ZM61.3495 31.7309L60.8604 32.3163L59.9714 31.6333L59.0822 32.3163L58.5755 31.7309L59.9695 30.5188L61.3495 31.7309ZM60.0556 36.529C60.1853 36.529 60.3093 36.526 60.4277 36.5199C60.5227 36.5164 60.6174 36.5075 60.7114 36.4933V35.4909C60.658 35.4793 60.5786 35.4673 60.472 35.4558C60.3747 35.4446 60.2771 35.4387 60.1792 35.4381C60.0621 35.4378 59.9451 35.4453 59.8289 35.4606C59.7289 35.4726 59.6317 35.501 59.541 35.5449C59.4622 35.5827 59.3948 35.6408 59.3458 35.7133C59.2961 35.7929 59.2714 35.8856 59.2749 35.9793C59.2661 36.0634 59.2809 36.1483 59.3178 36.2243C59.3546 36.3003 59.412 36.3646 59.4834 36.4096C59.6606 36.4982 59.8577 36.5396 60.0556 36.5297V36.529Z" fill="white"/>
<path d="M62.6704 32.9467C62.9559 32.8687 63.2462 32.808 63.5389 32.7648C63.9086 32.7076 64.2819 32.6794 64.6559 32.6806C64.9922 32.6708 65.3274 32.7234 65.6444 32.8357C65.8874 32.9253 66.1025 33.0768 66.2692 33.2751C66.4268 33.4728 66.5389 33.703 66.5971 33.9491C66.665 34.2337 66.6977 34.5256 66.6947 34.8182V37.4521H65.374V34.9776C65.3983 34.6666 65.3401 34.3548 65.2056 34.0733C65.1328 33.9778 65.0371 33.903 64.9262 33.8563C64.8159 33.8097 64.6953 33.7927 64.5759 33.8073C64.4813 33.8073 64.3807 33.8117 64.2728 33.8206C64.1656 33.8294 64.071 33.8397 63.9892 33.8515V37.4527H62.6704V32.9467Z" fill="white"/>
<path d="M67.1665 35.1201C67.1641 34.7951 67.2199 34.4723 67.3308 34.1668C67.4332 33.8755 67.5956 33.6089 67.8071 33.3838C68.0187 33.1587 68.2744 32.9799 68.5587 32.8589C68.878 32.724 69.2223 32.6575 69.569 32.6637C69.798 32.6619 70.0265 32.6843 70.2514 32.7304C70.4574 32.7749 70.6599 32.8388 70.8544 32.9213L70.5799 33.9771C70.4465 33.928 70.3102 33.8875 70.172 33.8558C70.009 33.8186 69.8423 33.8008 69.6756 33.8025C69.5114 33.7903 69.3471 33.8169 69.1956 33.8801C69.0441 33.9432 68.9096 34.0412 68.8029 34.1661C68.5993 34.443 68.4974 34.7813 68.5144 35.1243C68.4926 35.4706 68.5877 35.8142 68.7847 36.1001C68.9047 36.2266 69.052 36.3236 69.2156 36.3836C69.3793 36.4437 69.555 36.4651 69.7284 36.4462C69.9005 36.4452 70.072 36.4304 70.2423 36.4019C70.4156 36.3751 70.5847 36.3275 70.7471 36.2601L70.9332 37.3419C70.7465 37.4166 70.5538 37.4731 70.3568 37.5104C70.1053 37.5596 69.8502 37.5834 69.5944 37.5813C69.2193 37.5903 68.8459 37.5257 68.4956 37.391C68.2071 37.2771 67.9477 37.0997 67.7374 36.8722C67.5362 36.6489 67.3877 36.3837 67.3029 36.0958C67.2084 35.7792 67.1623 35.4503 67.1665 35.1201Z" fill="white"/>
<path d="M72.7571 31.4389C72.762 31.5457 72.7438 31.6523 72.7032 31.7512C72.6626 31.8501 72.6008 31.9388 72.522 32.0111C72.3687 32.1455 72.1717 32.2195 71.968 32.2195C71.7638 32.2195 71.5668 32.1455 71.4141 32.0111C71.2632 31.8586 71.179 31.6531 71.179 31.4389C71.179 31.2248 71.2632 31.0192 71.4141 30.8668C71.5674 30.7325 71.7638 30.6584 71.968 30.6584C72.1717 30.6584 72.3687 30.7325 72.522 30.8668C72.6008 30.939 72.6626 31.0277 72.7032 31.1266C72.7438 31.2255 72.762 31.3321 72.7571 31.4389ZM72.6359 37.4523H71.3153V32.7856H72.6359V37.4523Z" fill="white"/>
<path d="M75.0444 32.6629C75.3747 32.6543 75.7038 32.6994 76.0196 32.7962C76.2559 32.8703 76.4705 33.0012 76.6444 33.1774C76.8038 33.3486 76.9183 33.557 76.9765 33.7835C77.0438 34.0406 77.0771 34.3056 77.0741 34.5714V37.3211C76.885 37.3614 76.6226 37.4103 76.2862 37.4677C75.8814 37.5288 75.4723 37.5569 75.0632 37.552C74.788 37.5545 74.5129 37.5277 74.2432 37.472C74.0171 37.4268 73.8014 37.3378 73.6093 37.2102C73.4335 37.091 73.2929 36.9272 73.2014 36.7356C73.1008 36.51 73.0523 36.2645 73.0596 36.0174C73.0523 35.7762 73.1086 35.5374 73.2238 35.3253C73.3299 35.14 73.4808 34.9844 73.6626 34.8732C73.8571 34.757 74.0699 34.675 74.2917 34.6308C74.5335 34.5798 74.7802 34.5544 75.0274 34.555C75.1802 34.5542 75.3323 34.5616 75.4838 34.5774C75.5935 34.5888 75.7014 34.6091 75.8074 34.638V34.5168C75.8123 34.4176 75.7965 34.3185 75.7614 34.2256C75.7262 34.1326 75.6729 34.0477 75.6038 33.9762C75.4032 33.8188 75.1486 33.7456 74.8947 33.772C74.6717 33.7717 74.4486 33.7879 74.228 33.8205C74.0347 33.8469 73.845 33.8929 73.6608 33.958L73.4923 32.8938C73.5692 32.8702 73.665 32.8447 73.7802 32.8186C73.8953 32.7926 74.0226 32.7683 74.1565 32.7477C74.2905 32.7271 74.4359 32.709 74.5868 32.6944C74.7377 32.6799 74.8905 32.6629 75.0444 32.6629ZM75.1511 36.5302C75.2808 36.5302 75.405 36.5271 75.5232 36.5211C75.6183 36.5175 75.7129 36.5086 75.8068 36.4944V35.492C75.7535 35.4805 75.6735 35.4683 75.5674 35.4562C75.4705 35.4451 75.3729 35.4392 75.2747 35.4386C75.1577 35.438 75.0408 35.4454 74.9244 35.4605C74.8244 35.4725 74.7274 35.5009 74.6365 35.5447C74.5577 35.5826 74.4905 35.6407 74.4414 35.7132C74.3917 35.7928 74.3668 35.8854 74.3705 35.9792C74.362 36.0633 74.3765 36.148 74.4135 36.2241C74.4505 36.3002 74.5074 36.3643 74.5789 36.4096C74.7559 36.4983 74.9535 36.5399 75.1511 36.5302Z" fill="white"/>
</g>
</g>
<path d="M86.5757 0H85.5757V40H86.5757V0Z" fill="white"/>
<path d="M99.96 23.712C99.1493 23.712 98.424 23.5733 97.784 23.296C97.1546 23.0187 96.6533 22.6133 96.28 22.08C95.9173 21.5467 95.7306 20.9013 95.72 20.144H98.008C98.0186 20.4747 98.104 20.7733 98.264 21.04C98.424 21.3067 98.6426 21.52 98.92 21.68C99.208 21.8293 99.5493 21.904 99.944 21.904C100.285 21.904 100.579 21.8507 100.824 21.744C101.08 21.6267 101.277 21.4667 101.416 21.264C101.555 21.0613 101.624 20.8213 101.624 20.544C101.624 20.224 101.544 19.9573 101.384 19.744C101.235 19.5307 101.021 19.3493 100.744 19.2C100.477 19.0507 100.163 18.9173 99.8 18.8C99.448 18.672 99.0746 18.5387 98.68 18.4C97.7946 18.112 97.1173 17.728 96.648 17.248C96.1893 16.768 95.96 16.1333 95.96 15.344C95.96 14.672 96.12 14.096 96.44 13.616C96.7706 13.136 97.224 12.768 97.8 12.512C98.376 12.256 99.032 12.128 99.768 12.128C100.525 12.128 101.187 12.2613 101.752 12.528C102.328 12.784 102.781 13.1573 103.112 13.648C103.453 14.1387 103.629 14.7147 103.64 15.376H101.336C101.325 15.1307 101.251 14.9013 101.112 14.688C100.984 14.464 100.803 14.288 100.568 14.16C100.333 14.0213 100.056 13.952 99.736 13.952C99.4586 13.9413 99.2026 13.984 98.968 14.08C98.744 14.176 98.5626 14.32 98.424 14.512C98.296 14.6933 98.232 14.9227 98.232 15.2C98.232 15.4667 98.296 15.6907 98.424 15.872C98.5626 16.0533 98.7493 16.2133 98.984 16.352C99.2186 16.48 99.496 16.6027 99.816 16.72C100.136 16.8267 100.483 16.9387 100.856 17.056C101.411 17.248 101.923 17.4773 102.392 17.744C102.861 18 103.235 18.336 103.512 18.752C103.789 19.168 103.928 19.7173 103.928 20.4C103.928 20.9867 103.773 21.5307 103.464 22.032C103.155 22.5333 102.707 22.9387 102.12 23.248C101.544 23.5573 100.824 23.712 99.96 23.712Z" fill="white"/>
<path d="M108.944 23.712C108.134 23.712 107.414 23.5413 106.784 23.2C106.166 22.848 105.68 22.3627 105.328 21.744C104.987 21.1147 104.816 20.3893 104.816 19.568C104.816 18.7253 104.987 17.984 105.328 17.344C105.67 16.6933 106.15 16.1867 106.768 15.824C107.398 15.4507 108.123 15.264 108.944 15.264C109.744 15.264 110.443 15.44 111.04 15.792C111.638 16.144 112.102 16.6187 112.432 17.216C112.763 17.8133 112.928 18.4907 112.928 19.248C112.928 19.3547 112.928 19.4773 112.928 19.616C112.928 19.744 112.918 19.8773 112.896 20.016H106.352V18.704H110.752C110.72 18.1813 110.534 17.7707 110.192 17.472C109.862 17.1733 109.446 17.024 108.944 17.024C108.582 17.024 108.246 17.1093 107.936 17.28C107.627 17.44 107.382 17.6907 107.2 18.032C107.03 18.3733 106.944 18.8053 106.944 19.328V19.792C106.944 20.2293 107.024 20.6133 107.184 20.944C107.355 21.264 107.59 21.5147 107.888 21.696C108.187 21.8667 108.534 21.952 108.928 21.952C109.323 21.952 109.648 21.8667 109.904 21.696C110.171 21.5253 110.368 21.3067 110.496 21.04H112.704C112.555 21.5413 112.304 21.9947 111.952 22.4C111.6 22.8053 111.168 23.1253 110.656 23.36C110.144 23.5947 109.574 23.712 108.944 23.712Z" fill="white"/>
<path d="M114.057 23.52V15.456H115.961L116.121 16.768C116.367 16.32 116.713 15.9573 117.161 15.68C117.62 15.4027 118.164 15.264 118.793 15.264C119.465 15.264 120.031 15.4027 120.489 15.68C120.948 15.9573 121.295 16.3627 121.529 16.896C121.775 17.4293 121.897 18.0853 121.897 18.864V23.52H119.753V19.072C119.753 18.432 119.615 17.9413 119.337 17.6C119.071 17.2587 118.655 17.088 118.089 17.088C117.727 17.088 117.401 17.1733 117.113 17.344C116.836 17.5147 116.617 17.76 116.457 18.08C116.297 18.3893 116.217 18.768 116.217 19.216V23.52H114.057Z" fill="white"/>
<path d="M126.012 23.712C125.34 23.712 124.786 23.6053 124.348 23.392C123.911 23.168 123.586 22.8747 123.372 22.512C123.17 22.1387 123.068 21.728 123.068 21.28C123.068 20.7893 123.191 20.3573 123.436 19.984C123.692 19.6107 124.071 19.3173 124.572 19.104C125.084 18.8907 125.724 18.784 126.492 18.784H128.492C128.492 18.3893 128.439 18.064 128.332 17.808C128.226 17.5413 128.06 17.344 127.836 17.216C127.612 17.088 127.314 17.024 126.94 17.024C126.535 17.024 126.188 17.1147 125.9 17.296C125.623 17.4667 125.452 17.7333 125.388 18.096H123.292C123.346 17.52 123.532 17.024 123.852 16.608C124.183 16.1813 124.615 15.8507 125.148 15.616C125.692 15.3813 126.295 15.264 126.956 15.264C127.714 15.264 128.37 15.392 128.924 15.648C129.479 15.904 129.906 16.272 130.204 16.752C130.503 17.232 130.652 17.824 130.652 18.528V23.52H128.828L128.588 22.288C128.471 22.5013 128.332 22.6933 128.172 22.864C128.012 23.0347 127.826 23.184 127.612 23.312C127.399 23.44 127.159 23.536 126.892 23.6C126.626 23.6747 126.332 23.712 126.012 23.712ZM126.524 22.048C126.802 22.048 127.047 22 127.26 21.904C127.484 21.7973 127.676 21.6587 127.836 21.488C127.996 21.3067 128.119 21.104 128.204 20.88C128.3 20.6453 128.364 20.3947 128.396 20.128V20.112H126.748C126.418 20.112 126.146 20.1547 125.932 20.24C125.73 20.3147 125.58 20.4267 125.484 20.576C125.388 20.7253 125.34 20.896 125.34 21.088C125.34 21.3013 125.388 21.4773 125.484 21.616C125.58 21.7547 125.719 21.8613 125.9 21.936C126.082 22.0107 126.29 22.048 126.524 22.048Z" fill="white"/>
<path d="M132.027 23.52V15.456H133.947L134.155 16.944C134.347 16.592 134.587 16.2933 134.875 16.048C135.174 15.8027 135.51 15.6107 135.883 15.472C136.267 15.3333 136.689 15.264 137.147 15.264V17.552H136.411C136.091 17.552 135.793 17.5893 135.515 17.664C135.249 17.7387 135.014 17.8613 134.811 18.032C134.609 18.192 134.454 18.416 134.347 18.704C134.241 18.992 134.187 19.3547 134.187 19.792V23.52H132.027Z" fill="white"/>
<path d="M141.108 23.52V12.32H145.3C146.206 12.32 146.958 12.4747 147.556 12.784C148.153 13.0933 148.596 13.5093 148.884 14.032C149.172 14.5547 149.316 15.152 149.316 15.824C149.316 16.4427 149.177 17.0133 148.9 17.536C148.622 18.0587 148.185 18.4853 147.588 18.816C146.99 19.136 146.228 19.296 145.3 19.296H143.268V23.52H141.108ZM143.268 17.552H145.172C145.865 17.552 146.361 17.3973 146.66 17.088C146.969 16.768 147.124 16.3467 147.124 15.824C147.124 15.2693 146.969 14.8427 146.66 14.544C146.361 14.2347 145.865 14.08 145.172 14.08H143.268V17.552Z" fill="#00D960"/>
<path d="M150.248 23.52V12H152.408V23.52H150.248Z" fill="#00D960"/>
<path d="M156.593 23.712C155.921 23.712 155.367 23.6053 154.929 23.392C154.492 23.168 154.167 22.8747 153.953 22.512C153.751 22.1387 153.649 21.728 153.649 21.28C153.649 20.7893 153.772 20.3573 154.017 19.984C154.273 19.6107 154.652 19.3173 155.153 19.104C155.665 18.8907 156.305 18.784 157.073 18.784H159.073C159.073 18.3893 159.02 18.064 158.913 17.808C158.807 17.5413 158.641 17.344 158.417 17.216C158.193 17.088 157.895 17.024 157.521 17.024C157.116 17.024 156.769 17.1147 156.481 17.296C156.204 17.4667 156.033 17.7333 155.969 18.096H153.873C153.927 17.52 154.113 17.024 154.433 16.608C154.764 16.1813 155.196 15.8507 155.729 15.616C156.273 15.3813 156.876 15.264 157.537 15.264C158.295 15.264 158.951 15.392 159.505 15.648C160.06 15.904 160.487 16.272 160.785 16.752C161.084 17.232 161.233 17.824 161.233 18.528V23.52H159.409L159.169 22.288C159.052 22.5013 158.913 22.6933 158.753 22.864C158.593 23.0347 158.407 23.184 158.193 23.312C157.98 23.44 157.74 23.536 157.473 23.6C157.207 23.6747 156.913 23.712 156.593 23.712ZM157.105 22.048C157.383 22.048 157.628 22 157.841 21.904C158.065 21.7973 158.257 21.6587 158.417 21.488C158.577 21.3067 158.7 21.104 158.785 20.88C158.881 20.6453 158.945 20.3947 158.977 20.128V20.112H157.329C156.999 20.112 156.727 20.1547 156.513 20.24C156.311 20.3147 156.161 20.4267 156.065 20.576C155.969 20.7253 155.921 20.896 155.921 21.088C155.921 21.3013 155.969 21.4773 156.065 21.616C156.161 21.7547 156.3 21.8613 156.481 21.936C156.663 22.0107 156.871 22.048 157.105 22.048Z" fill="#00D960"/>
<path d="M163.351 27.04L165.303 22.624H164.823L161.591 15.456H163.943L166.247 20.656L168.327 15.456H170.615L165.639 27.04H163.351Z" fill="#00D960"/>
<defs>
<clipPath id="clip0_6304_4691">
<rect width="77.5758" height="40" fill="white"/>
</clipPath>
</defs>
</svg>
